<svg width="740" height="1384" viewBox="0 0 740 1384" fill="none" xmlns="http://www.w3.org/2000/svg">
<path d="M168.315 1232.82H246.667L240.863 1317.03H162.51L168.315 1232.82Z" fill="#F7ABA6"/>
<path d="M165.412 1276.39H243.765V1317.03H162.51L165.412 1276.39Z" fill="#FDD39B"/>
<path d="M220.279 1300.59C217.768 1305.35 212.829 1308.32 207.447 1308.32H197.166C192.447 1308.32 188.204 1305.45 186.451 1301.07C184.698 1296.68 180.454 1293.81 175.735 1293.81H156.706V1383.82H200.961L223.088 1372.21H245.216L275.687 1375.12L289.471 1383.82H333.726L335.891 1368.65C337.968 1354.11 328.863 1340.31 314.683 1336.5L275.972 1326.11C264.464 1323.02 256.013 1313.2 254.66 1301.36L253.353 1289.92C252.851 1285.51 249.129 1282.19 244.703 1282.19H235.229C232.001 1282.19 229.038 1283.98 227.53 1286.84L220.279 1300.59Z" fill="#7A431C"/>
<path d="M156.706 1360.6C160.423 1364.31 166.914 1366.4 172.169 1366.4H335.869V1383.82H280.674C279.423 1380.34 276.121 1378.01 272.421 1378.01H271.947C268.838 1378.01 265.928 1379.55 264.167 1382.11L262.99 1383.82H239.412C236.671 1380.16 232.371 1378.01 227.804 1378.01H222.457C217.556 1378.01 212.894 1380.13 209.667 1383.82H156.706V1360.6Z" fill="#2E1503"/>
<path d="M307.699 1334.62C306.456 1336.06 305.437 1337.71 304.706 1339.54C302.077 1346.12 295.711 1350.43 288.632 1350.43H284.392C275.577 1350.43 268.431 1357.58 268.431 1366.4H336.125C337.011 1352.71 328.128 1340.11 314.683 1336.5L307.699 1334.62Z" fill="#69340E"/>
<path d="M156.706 1302.52H172.61C176.15 1302.52 179.332 1304.68 180.646 1307.96C182.838 1313.44 188.142 1317.03 194.042 1317.03H214.269C219.876 1317.03 224.982 1313.8 227.382 1308.73L234.151 1294.43C235.592 1291.39 238.655 1289.46 242.019 1289.46H253.287C252.586 1285.28 248.971 1282.19 244.703 1282.19H235.229C232.001 1282.19 229.037 1283.98 227.53 1286.84L220.279 1300.59C217.768 1305.35 212.829 1308.32 207.447 1308.32H197.166C192.447 1308.32 188.204 1305.45 186.451 1301.07C184.698 1296.68 180.454 1293.81 175.735 1293.81H156.706V1302.52Z" fill="#69340E"/>
<path d="M253.963 1295.26H243.765C241.36 1295.26 239.411 1297.21 239.411 1299.62C239.411 1302.02 241.36 1303.98 243.765 1303.98H255.078C254.901 1303.11 254.76 1302.25 254.66 1301.36L254.626 1301.07H243.765C242.963 1301.07 242.314 1300.41 242.314 1299.62C242.314 1298.82 242.963 1298.17 243.765 1298.17H254.294L253.963 1295.26Z" fill="#F6E5C8"/>
<path d="M256.936 1309.77H246.666C244.262 1309.77 242.313 1311.73 242.313 1314.13C242.313 1316.54 244.262 1318.49 246.666 1318.49H262.866C261.964 1317.58 261.124 1316.61 260.35 1315.58H246.666C245.865 1315.58 245.215 1314.93 245.215 1314.13C245.215 1313.34 245.865 1312.68 246.666 1312.68H258.416C257.871 1311.74 257.377 1310.77 256.936 1309.77Z" fill="#F6E5C8"/>
<path fill-rule="evenodd" clip-rule="evenodd" d="M232.157 1286.55C232.157 1304.58 232.821 1318.63 242.155 1328.73C251.454 1338.79 269.033 1344.61 301.675 1347.52L301.932 1344.62C269.281 1341.72 252.761 1335.93 244.286 1326.76C235.845 1317.62 235.059 1304.81 235.059 1286.55H232.157ZM156.706 1341.72C173.231 1341.72 184.274 1352.77 184.274 1366.4H187.177C187.177 1351.16 174.833 1338.82 156.706 1338.82V1341.72Z" fill="#69340E"/>
<path d="M487.529 1120.28H565.879V1204.49H487.529V1120.28Z" fill="#F7ABA6"/>
<path d="M487.529 1163.84H526.706H565.879V1204.49H487.529V1163.84Z" fill="#FDD39B"/>
<path d="M542.397 1188.04C539.886 1192.81 534.946 1195.78 529.565 1195.78H519.284C514.566 1195.78 510.321 1192.91 508.568 1188.52C506.816 1184.13 502.572 1181.26 497.853 1181.26H484.628L478.823 1271.28H523.078L545.206 1259.66H567.33L597.805 1262.57L611.586 1271.28H655.842L658.013 1256.11C660.082 1241.57 650.984 1227.76 636.801 1223.96L598.093 1213.57C586.586 1210.48 578.126 1200.66 576.778 1188.82L575.471 1177.37C574.967 1172.97 571.251 1169.64 566.826 1169.64H557.348C554.119 1169.64 551.155 1171.44 549.648 1174.29L542.397 1188.04Z" fill="#7A431C"/>
<path d="M480.274 1248.05C483.991 1251.76 489.031 1253.85 494.286 1253.85H657.983V1271.28H602.796C601.541 1267.8 598.237 1265.47 594.542 1265.47H594.069C590.96 1265.47 588.048 1267.01 586.288 1269.57L585.104 1271.28H561.525C558.788 1267.62 554.488 1265.47 549.922 1265.47H544.575C539.674 1265.47 535.012 1267.59 531.784 1271.28H478.823L480.274 1248.05Z" fill="#2E1503"/>
<path d="M629.813 1222.08C628.578 1223.52 627.559 1225.16 626.828 1227C624.194 1233.58 617.833 1237.88 610.752 1237.88H606.512C597.692 1237.88 590.549 1245.04 590.549 1253.85H658.24C659.125 1240.16 650.243 1227.56 636.801 1223.96L629.813 1222.08Z" fill="#69340E"/>
<path d="M484.066 1189.97H494.729C498.268 1189.97 501.45 1192.13 502.765 1195.42C504.956 1200.9 510.26 1204.49 516.16 1204.49H536.387C541.994 1204.49 547.1 1201.26 549.5 1196.19L556.269 1181.89C557.71 1178.85 560.774 1176.9 564.139 1176.9H575.409C574.699 1172.73 571.086 1169.64 566.826 1169.64H557.348C554.119 1169.64 551.155 1171.44 549.648 1174.29L542.397 1188.04C539.886 1192.81 534.947 1195.78 529.565 1195.78H519.284C514.565 1195.78 510.322 1192.91 508.569 1188.52C506.817 1184.13 502.572 1181.26 497.853 1181.26H484.628L484.066 1189.97Z" fill="#69340E"/>
<path d="M576.078 1182.71H565.879C563.481 1182.71 561.525 1184.67 561.525 1187.07C561.525 1189.48 563.481 1191.43 565.879 1191.43H577.2C577.015 1190.57 576.881 1189.7 576.778 1188.82L576.747 1188.52H565.879C565.076 1188.52 564.427 1187.87 564.427 1187.07C564.427 1186.27 565.076 1185.62 565.879 1185.62H576.407L576.078 1182.71Z" fill="#F6E5C8"/>
<path d="M579.053 1197.23H568.781C566.383 1197.23 564.427 1199.18 564.427 1201.59C564.427 1203.99 566.383 1205.95 568.781 1205.95H584.981C584.085 1205.03 583.241 1204.06 582.47 1203.04H568.781C567.978 1203.04 567.33 1202.39 567.33 1201.59C567.33 1200.79 567.978 1200.14 568.781 1200.14H580.535C579.989 1199.2 579.495 1198.23 579.053 1197.23Z" fill="#F6E5C8"/>
<path fill-rule="evenodd" clip-rule="evenodd" d="M554.274 1174C554.274 1192.04 554.939 1206.08 564.273 1216.18C573.567 1226.25 591.146 1232.07 623.792 1234.98L624.049 1232.08C591.403 1229.18 574.874 1223.39 566.404 1214.22C557.964 1205.08 557.176 1192.26 557.176 1174H554.274ZM481.726 1229.18C495.348 1229.18 506.392 1240.23 506.392 1253.85H509.294C509.294 1238.62 496.951 1226.28 481.726 1226.28V1229.18Z" fill="#69340E"/>
<path d="M439.646 645.526L275.686 646.978L275.789 647.704L150.901 652.085L162.51 964.234L155.255 1250.25H262.627L320.666 766.781L459.234 888.712L468.666 1151.53H581.842L591.31 856.522C591.753 842.647 587.214 829.072 578.517 818.255L439.646 645.526Z" fill="#3A3A3A"/>
<path d="M322.117 723.226L262.627 1251.7H155.255" stroke="black" stroke-width="4.229" stroke-linecap="round"/>
<path d="M52.2354 228.841H359.843V664.4H72.5488C61.3305 664.4 52.2354 655.3 52.2354 644.074V228.841Z" fill="#495927"/>
<path d="M256.823 686.177C191.529 739.897 150.901 709.407 150.901 709.407V646.978H439.646C420.784 673.111 293.098 656.334 256.823 686.177Z" fill="#CB712F"/>
<path fill-rule="evenodd" clip-rule="evenodd" d="M240.332 695.825C232.814 703.561 222.416 709.962 208.94 710.773C207.341 710.87 206.039 709.56 206.039 707.956C206.039 706.353 207.342 705.063 208.941 704.953C220.498 704.157 229.485 698.657 236.17 691.777C242.399 685.367 246.541 677.839 248.746 672.094C249.32 670.597 250.939 669.736 252.471 670.208C254.002 670.679 254.868 672.305 254.304 673.807C251.881 680.26 247.298 688.655 240.332 695.825Z" fill="#8E4B0C"/>
<path d="M298.902 106.885C267.649 106.885 242.314 132.235 242.314 163.507V227.39" stroke="#495A27" stroke-width="16.918"/>
<path d="M75.4512 115.596V228.841H359.843V228.823C390.425 228.053 414.98 203.006 414.98 172.219C414.98 141.432 390.425 116.384 359.843 115.614V115.596H75.4512Z" fill="#DB552B"/>
<path d="M411.76 191.094H87.0586V228.841H359.843V228.823C383.851 228.219 404.144 212.652 411.76 191.094Z" fill="#C04923"/>
<path d="M145.1 115.597H100.708C112.358 104.784 127.957 98.1738 145.1 98.1738C181.16 98.1738 210.394 127.425 210.394 163.507V228.841H192.982V163.507C192.982 137.047 171.544 115.597 145.1 115.597Z" fill="#7A431C"/>
<path d="M79.8037 228.841C111.056 228.841 136.392 203.49 136.392 172.219C136.392 140.947 111.056 115.596 79.8037 115.596C48.5511 115.596 23.2158 140.947 23.2158 172.219C23.2158 203.49 48.5511 228.841 79.8037 228.841Z" fill="#D04219"/>
<path d="M297.451 106.885C328.704 106.885 354.039 132.235 354.039 163.507V230.293" stroke="#495A27" stroke-width="16.918"/>
<path d="M79.8047 211.419C101.441 211.419 118.981 193.869 118.981 172.219C118.981 150.569 101.441 133.018 79.8047 133.018C58.1679 133.018 40.6279 150.569 40.6279 172.219C40.6279 193.869 58.1679 211.419 79.8047 211.419Z" stroke="#DC5531" stroke-width="5.639"/>
<path d="M79.8037 188.189C88.6187 188.189 95.7647 181.039 95.7647 172.219C95.7647 163.398 88.6187 156.248 79.8037 156.248C70.9887 156.248 63.8428 163.398 63.8428 172.219C63.8428 181.039 70.9887 188.189 79.8037 188.189Z" stroke="#DC5531" stroke-width="5.639"/>
<path d="M358.392 230.293H137.843V543.896H358.392V230.293Z" stroke="black" stroke-width="2.82"/>
<path d="M60.9404 324.664H46.4317C44.8287 324.664 43.5293 325.964 43.5293 327.568V435.005C43.5293 436.609 44.8287 437.909 46.4317 437.909H60.9404C62.5433 437.909 63.8428 436.609 63.8428 435.005V327.568C63.8428 325.964 62.5433 324.664 60.9404 324.664Z" fill="#7A431C"/>
<path d="M14.5098 257.878C14.5098 241.842 27.5015 228.841 43.5293 228.841H359.843V365.317H26.1172C19.7062 365.317 14.5098 360.116 14.5098 353.701V257.878Z" fill="#2B3B0A"/>
<path d="M217.647 435.005H29.0195C12.9925 435.005 0 448.006 0 464.043V609.229C0 625.266 12.9925 638.267 29.0195 638.267H217.647C233.675 638.267 246.667 625.266 246.667 609.229V464.043C246.667 448.006 233.675 435.005 217.647 435.005Z" fill="#2B3C0A"/>
<path d="M52.2354 228.841H124.784C131.195 228.841 136.393 234.042 136.393 240.457V664.4H75.4512C62.6293 664.4 52.2354 653.999 52.2354 641.171V228.841Z" fill="#3A4A16"/>
<path d="M66.1801 662.475C57.9722 658.894 52.2354 650.703 52.2354 641.17V594.299L85.2132 561.301L105.734 581.834L124.784 593.26V603.422L66.1801 662.475Z" fill="#304207"/>
<path d="M87.0586 228.841H95.7646V311.597C95.7646 314.003 93.8153 315.954 91.4111 315.954C89.0069 315.954 87.0586 314.003 87.0586 311.597V228.841Z" fill="#2B3B0A"/>
<path d="M29.0195 435.005H34.8242V493.08C34.8242 494.684 33.5243 495.984 31.9219 495.984C30.3194 495.984 29.0195 494.684 29.0195 493.08V435.005Z" fill="#202E05"/>
<path d="M101.569 487.273H84.1572V498.888H101.569V487.273Z" fill="#B1320A"/>
<path d="M121.883 510.502C121.883 500.881 114.088 493.081 104.471 493.081H81.2548C71.639 493.081 63.8438 500.881 63.8438 510.502V577.288H121.883V510.502Z" fill="#D34316"/>
<path d="M121.883 577.288H72.5488V510.502C72.5488 500.881 81.3846 493.081 92.2829 493.081H102.15C114.628 493.081 121.883 500.881 121.883 510.502V577.288Z" fill="#DB552B"/>
<path d="M101.568 472.755H84.1573C82.5543 472.755 81.2549 474.055 81.2549 475.659V487.273C81.2549 488.877 82.5543 490.178 84.1573 490.178H101.568C103.171 490.178 104.471 488.877 104.471 487.273V475.659C104.471 474.055 103.171 472.755 101.568 472.755Z" fill="#D04219"/>
<path d="M60.9414 525.021H124.784V597.615C124.784 605.633 118.288 612.133 110.274 612.133H92.8634H75.4512C67.4378 612.133 60.9414 605.633 60.9414 597.615V525.021Z" fill="#2B3B0A"/>
<path d="M253.348 157.684C222.908 155.686 226.251 131.06 226.875 96.2211L267.677 86.7878C269.879 98.9275 270.095 130.104 253.348 157.684Z" fill="#241B14"/>
<path d="M276.549 56.2307C257.984 55.2339 242.5 70.2591 242.925 88.8569L243.685 122.107C243.738 124.395 244.179 126.658 244.99 128.798C245.806 130.949 246.486 130.584 246.536 132.875L248.151 204.783L244.379 253.36L323.878 253.333L324.865 198.172L329.627 198.256C345.651 198.543 358.874 185.779 359.161 169.744L360.513 94.2707C362.368 76.1189 348.676 60.1039 330.467 59.1256L276.549 56.2307Z" fill="#F7ABA6"/>
<path d="M286.013 197.474L328.085 198.229L327.773 215.649L286.013 197.474Z" fill="#DB7D76"/>
<path d="M309.216 116.254C311.62 116.297 313.603 114.382 313.646 111.977C313.689 109.572 311.776 107.588 309.372 107.545C306.969 107.502 304.986 109.416 304.943 111.821C304.9 114.226 306.813 116.211 309.216 116.254Z" fill="#241B14"/>
<path fill-rule="evenodd" clip-rule="evenodd" d="M315.722 100.682C309.521 97.0501 301.691 98.3467 296.976 103.597C296.441 104.193 295.537 104.335 294.892 103.859C294.247 103.383 294.107 102.468 294.633 101.864C300.238 95.424 309.706 93.7948 317.188 98.1768L318.25 98.7978C318.941 99.2035 319.173 100.092 318.768 100.784C318.364 101.476 317.475 101.709 316.783 101.304L315.722 100.682Z" fill="#241B14"/>
<path d="M344.049 117.197C346.452 117.24 348.436 115.325 348.479 112.921C348.522 110.516 346.608 108.531 344.205 108.488C341.801 108.445 339.818 110.36 339.775 112.765C339.732 115.17 341.646 117.154 344.049 117.197Z" fill="#241B14"/>
<path fill-rule="evenodd" clip-rule="evenodd" d="M335.043 101.348C341.371 97.94 349.149 99.5156 353.674 104.932C354.187 105.546 355.086 105.721 355.747 105.268C356.407 104.815 356.58 103.907 356.076 103.284C350.706 96.6476 341.302 94.6795 333.668 98.7906L332.585 99.3735C331.88 99.7535 331.616 100.634 331.996 101.339C332.375 102.046 333.255 102.311 333.96 101.931L335.043 101.348Z" fill="#241B14"/>
<path d="M306.156 486.145H355.651V512.263L332.254 539.46H306.156V486.145Z" stroke="black" stroke-width="2.82"/>
<path d="M314.862 474.529H364.357V500.649L340.96 527.845H314.862V474.529Z" stroke="black" stroke-width="2.82"/>
<path d="M307.608 484.693H360.004V512.802L335.822 540.912H307.608V484.693Z" fill="#2B3B0A"/>
<path d="M325.989 487.998L394.507 440.046V415.244H434.813V435.538C434.813 442.57 431.629 449.225 426.153 453.635L325.989 534.296V487.998Z" fill="#2B3B0A"/>
<path d="M359.253 275.753C359.212 251.911 378.5 232.554 402.328 232.523C422.084 232.497 439.332 245.906 444.19 265.068L491.884 453.179L430.77 483.48C398.011 499.721 359.595 475.914 359.533 439.333L359.253 275.753Z" fill="#255340"/>
<path d="M246.667 205.611C241.858 205.611 237.961 209.511 237.961 214.322V226.49C237.961 229.473 235.702 231.971 232.736 232.268L180.001 237.552C169.418 237.552 159.88 243.943 155.85 253.735L143.68 283.308C142.703 285.684 142.263 288.246 142.391 290.812L155.85 497.436L150.902 609.229C150.902 618.851 158.697 638.266 168.313 638.266H417.62C427.338 638.266 443.882 618.691 443.736 608.969L429.988 481.465V270.942C429.712 252.421 416.08 231.745 397.568 231.745H346.784C343.579 231.745 340.98 229.145 340.98 225.937V214.322C340.98 209.511 337.083 205.611 332.274 205.611H246.667Z" fill="#2A5F49"/>
<path d="M287.189 516.31L279.65 511.955C278.262 511.153 276.487 511.628 275.686 513.017L245.215 565.825C244.414 567.215 244.89 568.991 246.278 569.793L253.816 574.148C255.205 574.95 256.98 574.474 257.781 573.085L288.251 520.277C289.053 518.888 288.577 517.112 287.189 516.31Z" fill="#1A4E38"/>
<path fill-rule="evenodd" clip-rule="evenodd" d="M340.98 234.649H373.402C383.829 234.649 392.563 242.549 393.612 252.93L409.177 406.936C409.177 413.351 414.373 418.552 420.784 418.552H452.706L435.294 257.878C435.294 245.05 424.9 234.649 412.078 234.649H414.98C414.98 229.838 411.083 225.938 406.274 225.938H340.98V234.649Z" fill="#2B3B0A"/>
<path d="M379.768 516.31L387.307 511.955C388.695 511.153 390.471 511.628 391.272 513.017L421.742 565.825C422.544 567.215 422.068 568.991 420.68 569.793L413.141 574.148C411.753 574.95 409.978 574.474 409.176 573.085L378.706 520.277C377.905 518.888 378.38 517.112 379.768 516.31Z" fill="#1A4E38"/>
<path d="M406.274 397.257H435.294V435.005C419.267 435.005 406.274 422.006 406.274 405.968V397.257Z" fill="#2B3B0A"/>
<path d="M157.675 540.265L201.419 509.652C216.945 498.786 226.193 481.021 226.193 462.062V412.34H266.498V471.12C266.498 488.703 258.538 505.339 244.848 516.362L157.675 586.564V540.265Z" fill="#2B3B0A"/>
<path d="M170.698 531.153L157.675 540.267V586.565L191.111 559.638C191.491 558.855 191.692 557.99 191.692 557.106V536.96C191.692 533.752 189.093 531.153 185.888 531.153H170.698Z" fill="#263408"/>
<path d="M133.49 542.767C133.49 539.56 136.089 536.96 139.294 536.96H180.083C183.288 536.96 185.887 539.559 185.887 542.767V562.914C185.887 564.304 185.388 565.649 184.481 566.702L163.44 591.16C162.338 592.442 160.732 593.178 159.042 593.178H139.294C136.089 593.178 133.49 590.579 133.49 587.371V542.767Z" fill="#2B3B0A"/>
<path d="M194.432 447.372L219.099 273.148L149.451 349.347C148 352.734 142.196 366.479 142.196 405.969C142.196 405.969 146.55 486.572 194.432 447.372Z" fill="#235842"/>
<path d="M255.372 208.515V231.745" stroke="#1A4E38" stroke-width="2.82"/>
<path d="M284.392 208.515V231.745" stroke="#1A4E38" stroke-width="2.82"/>
<path d="M194.432 231.745H249.569C265.596 231.745 278.589 244.746 278.589 260.782V398.225C278.589 407.848 270.793 415.647 261.177 415.647H226.192V267.967C226.192 258.064 221.147 248.842 212.808 243.506L194.432 231.745Z" fill="#2B3B0A"/>
<path d="M266.98 397.257H237.961V435.005C253.988 435.005 266.98 422.006 266.98 405.968V397.257Z" fill="#2B3B0A"/>
<path d="M323.569 236.852L325.02 271.696L335.177 528.677L338.016 541.933C344.669 573.001 341.652 605.362 329.373 634.662" stroke="#1A4E38" stroke-width="5.639"/>
<path d="M142.196 603.422C142.196 600.214 144.795 597.615 148 597.615H441.099C444.304 597.615 446.902 600.214 446.902 603.422V641.17C446.902 644.377 444.304 646.978 441.099 646.978H148C144.795 646.978 142.196 644.377 142.196 641.17V603.422Z" fill="#2A5F49"/>
<path fill-rule="evenodd" clip-rule="evenodd" d="M143.646 597.614C143.646 596.813 144.297 596.163 145.098 596.163H444C444.801 596.163 445.451 596.813 445.451 597.614C445.451 598.416 444.801 599.066 444 599.066H145.098C144.297 599.066 143.646 598.416 143.646 597.614Z" fill="#1A4E38"/>
<path d="M136.392 230.293C136.392 227.887 138.341 225.938 140.745 225.938H246.667C251.474 225.938 255.372 229.838 255.372 234.648H140.745C138.341 234.648 136.392 232.699 136.392 230.293Z" fill="#2B3B0A"/>
<path d="M136.118 255.14C145.505 235.322 167.705 225.048 188.876 230.724C215.931 237.978 230.026 267.779 218.478 293.313L130.723 487.35C125.469 498.968 113.254 505.797 100.612 504.183L62.5388 499.324C42.9632 496.826 31.5349 475.927 39.9878 458.084L136.118 255.14Z" fill="#255340"/>
<path d="M180.802 386.25C187.892 382.73 196.493 385.545 200.133 392.577L224.16 438.982C227.768 445.95 225.188 454.527 218.337 458.345L100.713 523.9C83.4984 533.494 61.7637 526.898 52.7766 509.351L44.5502 493.288C35.6969 476.003 42.677 454.812 60.0655 446.181L180.802 386.25Z" fill="#255340"/>
<path d="M218.505 367.841L268.553 339.887C274.379 336.633 281.916 338.797 285.059 344.628L289.623 353.092L299.201 391.852C301.101 399.544 297.788 407.488 290.929 411.684L269.333 424.894C264.148 428.067 258.096 429.705 251.916 429.611L241.518 435.007L222.667 413.515L205.233 389.308L211.407 384.028L218.505 367.841Z" fill="#F7ABA6"/>
<path d="M217.31 371.469L217.934 366.275C218.296 363.26 219.322 360.363 220.939 357.793C223.508 353.712 227.433 350.667 232.023 349.194L258.088 340.832C263.406 339.126 269.213 339.957 273.839 343.087L274.02 343.21C274.3 343.399 274.494 343.691 274.56 344.021C275.823 350.307 272.268 356.563 266.225 358.69L221.154 374.554C219.125 375.269 217.053 373.604 217.31 371.469Z" fill="#F7ABA6"/>
<path d="M244.869 430.759L215.749 377.492C214.98 376.085 213.216 375.568 211.81 376.338L194.325 385.908C192.919 386.678 192.403 388.443 193.172 389.85L222.291 443.116C223.06 444.523 224.824 445.04 226.23 444.27L243.715 434.7C245.121 433.93 245.638 432.166 244.869 430.759Z" fill="#255340"/>
<path d="M227.447 64.2541C227.996 33.5672 251.253 8.07098 281.744 4.73031L296.38 3.12686C296.625 3.10008 296.872 3.10451 297.115 3.14004L311.684 5.26696C342.035 9.69822 364.366 36.012 363.816 66.6989L363.53 82.6964C363.502 84.2998 362.179 85.5768 360.577 85.548L230.009 83.2072C228.407 83.1783 227.132 81.856 227.16 80.2526L227.447 64.2541Z" fill="#BD4C00"/>
<path fill-rule="evenodd" clip-rule="evenodd" d="M348.973 85.3411C350.576 85.37 351.898 84.093 351.927 82.4895L352.238 65.1173C352.776 35.0245 331.293 9.04043 301.65 3.93194L297.191 3.16317C297.063 3.14102 296.934 3.12774 296.805 3.1229C296.639 3.11713 296.473 3.12517 296.309 3.14731L291.824 3.75573C262.019 7.79865 239.618 32.9968 239.08 63.0885L238.768 80.4618C238.74 82.0642 240.015 83.3875 241.618 83.4164L348.973 85.3411ZM349.025 82.438L349.337 65.0658C349.784 40.0069 334.199 17.9394 311.405 9.53721C324.364 18.1656 332.496 32.9772 332.205 49.2352L331.616 82.126L349.025 82.438ZM259.668 47.9356C259.959 31.6766 268.616 17.1662 281.875 9.00788C258.795 16.5879 242.43 38.0821 241.981 63.141L241.67 80.5133L259.079 80.8253L259.668 47.9356ZM262.569 47.987L261.981 80.8778L279.39 81.1899L280.325 28.9382C280.464 21.14 283.685 13.8493 289.082 8.5358C273.487 15.2105 262.882 30.5242 262.569 47.987ZM304.22 8.80717C319.567 16.0365 329.616 31.7198 329.303 49.1837L328.714 82.0735L311.305 81.7614L312.241 29.5098C312.381 21.7121 309.422 14.3107 304.22 8.80717ZM308.404 81.7099L309.339 29.4583C309.508 20.0547 304.677 11.2913 296.692 6.40941C288.536 11.0019 283.394 19.5866 283.226 28.9897L282.291 81.2414L308.404 81.7099Z" fill="#D56011"/>
<path d="M288.038 84.2484L227.107 83.1567L226.717 104.93C230.879 102.941 249.394 105.641 256.516 106.663C257.767 106.842 258.761 107.8 258.987 109.044L261.249 121.523L265.6 121.6C267.203 121.629 268.461 120.332 268.822 118.769C270.601 111.054 279.333 115.203 284.721 107.423C290.68 98.8164 288.038 84.2484 288.038 84.2484Z" fill="#241B14"/>
<path d="M363.738 71.0834L227.368 68.6396C225.765 68.6109 224.443 69.8877 224.414 71.4913L224.102 88.9102C224.074 90.5138 225.35 91.8371 226.952 91.8659L363.322 94.3096C364.925 94.3383 366.247 93.0616 366.276 91.4579L366.588 74.039C366.616 72.4354 365.34 71.1121 363.738 71.0834Z" fill="#9F4000"/>
<path d="M264.081 115.765C265.212 133.211 257.46 133.072 247.898 132.9C238.336 132.729 232.166 124.816 232.339 115.196C232.51 105.575 238.959 97.8894 248.522 98.0614C258.084 98.2324 264.253 106.145 264.081 115.765Z" fill="#F7ABA6"/>
<path fill-rule="evenodd" clip-rule="evenodd" d="M244.104 108.466C244.737 107.976 245.649 108.091 246.14 108.725L253.678 118.466C254.169 119.1 254.053 120.011 253.419 120.503C252.786 120.994 251.874 120.878 251.383 120.244L243.845 110.503C243.355 109.87 243.47 108.957 244.104 108.466Z" fill="#D5726B"/>
<path d="M247.574 74.8105L235.968 74.6025C234.365 74.5738 233.043 75.8505 233.014 77.4542L232.91 83.2595C232.882 84.8631 234.157 86.1864 235.76 86.2151L247.366 86.4231C248.968 86.4518 250.291 85.1751 250.32 83.5714L250.423 77.7662C250.452 76.1625 249.176 74.8392 247.574 74.8105Z" fill="#FBBC91"/>
<path d="M301.075 5.31543C301.135 5.04015 301.07 4.90803 301.075 4.61566C301.118 2.21059 299.205 0.225891 296.801 0.182844C294.398 0.139694 292.413 2.05457 292.371 4.45964C292.366 4.75201 292.39 5.0382 292.439 5.31543H301.075Z" fill="#BD4C00"/>
<path d="M328.252 125.61L332.267 144.56L325.013 144.429" stroke="black" stroke-width="2.82" stroke-linecap="round" stroke-linejoin="round"/>
<path d="M334.599 157.134L313.906 155.421C313.025 155.348 312.281 156.074 312.399 156.951C313.081 162.003 315.66 168.822 323.212 168.249C330.6 167.686 334.502 162.624 335.783 158.79C336.052 157.985 335.445 157.204 334.599 157.134Z" fill="white"/>
<path fill-rule="evenodd" clip-rule="evenodd" d="M335.806 158.714L312.434 157.208C312.422 157.122 312.411 157.038 312.398 156.953C312.28 156.076 313.024 155.349 313.906 155.422L334.599 157.135C335.418 157.203 336.013 157.937 335.806 158.714Z" fill="#D4726B"/>
<path d="M420.784 1357.69C420.784 1309.58 459.761 1270.58 507.843 1270.58H647.361C657.962 1270.58 667.719 1276.36 672.813 1285.66L689.219 1315.58L713.189 1322.2C724.202 1325.24 732.415 1334.47 734.154 1345.78L740 1383.82H420.784V1357.69Z" fill="#2B3B0A"/>
<path d="M473.511 515.806L490.446 506.534C503.904 499.166 510.221 483.261 505.488 468.659L461.412 332.675L445.451 345.741L407.607 404.646C406.755 405.971 406.479 407.586 406.84 409.119L427.12 495.121C431.962 515.653 455.015 525.932 473.511 515.806Z" fill="#255340"/>
<path d="M385.221 355.176C384.775 352.866 385.766 350.515 387.731 349.222L405.917 337.262C415.023 331.273 426.712 330.893 436.187 336.277L442.063 339.617C446.164 341.948 448.878 346.127 449.338 350.824L454.387 402.314C455.238 411.001 448.293 418.47 439.572 418.246L415.282 417.62C411.2 417.515 407.74 414.585 406.961 410.574L401.714 383.565L397.487 384.861C394.188 385.872 390.742 383.798 390.088 380.409L385.221 355.176Z" fill="#F7ABA6"/>
<path d="M298.902 106.885C267.649 106.885 242.314 132.235 242.314 163.507V227.39" stroke="#495A27" stroke-width="16.918"/>
<path d="M75.4512 115.596V228.841H359.843V228.823C390.425 228.053 414.98 203.006 414.98 172.219C414.98 141.432 390.425 116.384 359.843 115.614V115.596H75.4512Z" fill="#DB552B"/>
<path d="M411.76 191.094H87.0586V228.841H359.843V228.823C383.851 228.219 404.144 212.652 411.76 191.094Z" fill="#C04923"/>
<path d="M145.1 115.597H100.708C112.358 104.784 127.957 98.1738 145.1 98.1738C181.16 98.1738 210.394 127.425 210.394 163.507V228.841H192.982V163.507C192.982 137.047 171.544 115.597 145.1 115.597Z" fill="#7A431C"/>
<path d="M79.8037 228.841C111.056 228.841 136.392 203.49 136.392 172.219C136.392 140.947 111.056 115.596 79.8037 115.596C48.5511 115.596 23.2158 140.947 23.2158 172.219C23.2158 203.49 48.5511 228.841 79.8037 228.841Z" fill="#D04219"/>
<path d="M297.451 106.885C328.704 106.885 354.039 132.235 354.039 163.507V230.293" stroke="#495A27" stroke-width="16.918"/>
<path d="M79.8047 211.419C101.441 211.419 118.981 193.869 118.981 172.219C118.981 150.569 101.441 133.018 79.8047 133.018C58.1679 133.018 40.6279 150.569 40.6279 172.219C40.6279 193.869 58.1679 211.419 79.8047 211.419Z" stroke="#DC5531" stroke-width="5.639"/>
<path d="M79.8037 188.189C88.6187 188.189 95.7647 181.039 95.7647 172.219C95.7647 163.398 88.6187 156.248 79.8037 156.248C70.9887 156.248 63.8428 163.398 63.8428 172.219C63.8428 181.039 70.9887 188.189 79.8037 188.189Z" stroke="#DC5531" stroke-width="5.639"/>
<path d="M358.392 230.293H137.843V543.896H358.392V230.293Z" stroke="black" stroke-width="2.82"/>
<path d="M60.9404 324.664H46.4317C44.8287 324.664 43.5293 325.964 43.5293 327.568V435.005C43.5293 436.609 44.8287 437.909 46.4317 437.909H60.9404C62.5433 437.909 63.8428 436.609 63.8428 435.005V327.568C63.8428 325.964 62.5433 324.664 60.9404 324.664Z" fill="#7A431C"/>
<path d="M14.5098 257.878C14.5098 241.842 27.5015 228.841 43.5293 228.841H359.843V365.317H26.1172C19.7062 365.317 14.5098 360.116 14.5098 353.701V257.878Z" fill="#2B3B0A"/>
<path d="M217.647 435.005H29.0195C12.9925 435.005 0 448.006 0 464.043V609.229C0 625.266 12.9925 638.267 29.0195 638.267H217.647C233.675 638.267 246.667 625.266 246.667 609.229V464.043C246.667 448.006 233.675 435.005 217.647 435.005Z" fill="#2B3C0A"/>
<path d="M52.2354 228.841H124.784C131.195 228.841 136.393 234.042 136.393 240.457V664.4H75.4512C62.6293 664.4 52.2354 653.999 52.2354 641.171V228.841Z" fill="#3A4A16"/>
<path d="M66.1801 662.475C57.9722 658.894 52.2354 650.703 52.2354 641.17V594.299L85.2132 561.301L105.734 581.834L124.784 593.26V603.422L66.1801 662.475Z" fill="#304207"/>
<path d="M87.0586 228.841H95.7646V311.597C95.7646 314.003 93.8153 315.954 91.4111 315.954C89.0069 315.954 87.0586 314.003 87.0586 311.597V228.841Z" fill="#2B3B0A"/>
<path d="M29.0195 435.005H34.8242V493.08C34.8242 494.684 33.5243 495.984 31.9219 495.984C30.3194 495.984 29.0195 494.684 29.0195 493.08V435.005Z" fill="#202E05"/>
<path d="M101.569 487.273H84.1572V498.888H101.569V487.273Z" fill="#B1320A"/>
<path d="M121.883 510.502C121.883 500.881 114.088 493.081 104.471 493.081H81.2548C71.639 493.081 63.8438 500.881 63.8438 510.502V577.288H121.883V510.502Z" fill="#D34316"/>
<path d="M121.883 577.288H72.5488V510.502C72.5488 500.881 81.3846 493.081 92.2829 493.081H102.15C114.628 493.081 121.883 500.881 121.883 510.502V577.288Z" fill="#DB552B"/>
<path d="M101.568 472.755H84.1573C82.5543 472.755 81.2549 474.055 81.2549 475.659V487.273C81.2549 488.877 82.5543 490.178 84.1573 490.178H101.568C103.171 490.178 104.471 488.877 104.471 487.273V475.659C104.471 474.055 103.171 472.755 101.568 472.755Z" fill="#D04219"/>
<path d="M60.9414 525.021H124.784V597.615C124.784 605.633 118.288 612.133 110.274 612.133H92.8634H75.4512C67.4378 612.133 60.9414 605.633 60.9414 597.615V525.021Z" fill="#2B3B0A"/>
<path d="M253.348 157.684C222.908 155.686 226.251 131.06 226.875 96.2211L267.677 86.7878C269.879 98.9275 270.095 130.104 253.348 157.684Z" fill="#241B14"/>
<path d="M276.549 56.2307C257.984 55.2339 242.5 70.2591 242.925 88.8569L243.685 122.107C243.738 124.395 244.179 126.658 244.99 128.798C245.806 130.949 246.486 130.584 246.536 132.875L248.151 204.783L244.379 253.36L323.878 253.333L324.865 198.172L329.627 198.256C345.651 198.543 358.874 185.779 359.161 169.744L360.513 94.2707C362.368 76.1189 348.676 60.1039 330.467 59.1256L276.549 56.2307Z" fill="#F7ABA6"/>
<path d="M286.013 197.474L328.085 198.229L327.773 215.649L286.013 197.474Z" fill="#CE5E56"/>
<path d="M309.216 116.254C311.62 116.297 313.603 114.382 313.646 111.977C313.689 109.572 311.776 107.588 309.372 107.545C306.969 107.502 304.986 109.416 304.943 111.821C304.9 114.226 306.813 116.211 309.216 116.254Z" fill="#241B14"/>
<path fill-rule="evenodd" clip-rule="evenodd" d="M315.722 100.682C309.521 97.0501 301.691 98.3467 296.976 103.597C296.441 104.193 295.537 104.335 294.892 103.859C294.247 103.383 294.107 102.468 294.633 101.864C300.238 95.424 309.706 93.7948 317.188 98.1768L318.25 98.7978C318.941 99.2035 319.173 100.092 318.768 100.784C318.364 101.476 317.475 101.709 316.783 101.304L315.722 100.682Z" fill="#241B14"/>
<path d="M344.049 117.197C346.452 117.24 348.436 115.325 348.479 112.921C348.522 110.516 346.608 108.531 344.205 108.488C341.801 108.445 339.818 110.36 339.775 112.765C339.732 115.17 341.646 117.154 344.049 117.197Z" fill="#241B14"/>
<path fill-rule="evenodd" clip-rule="evenodd" d="M335.043 101.348C341.371 97.94 349.149 99.5156 353.674 104.932C354.187 105.546 355.086 105.721 355.747 105.268C356.407 104.815 356.58 103.907 356.076 103.284C350.706 96.6476 341.302 94.6795 333.668 98.7906L332.585 99.3735C331.88 99.7535 331.616 100.634 331.996 101.339C332.375 102.046 333.255 102.311 333.96 101.931L335.043 101.348Z" fill="#241B14"/>
<path d="M306.156 486.145H355.651V512.263L332.254 539.46H306.156V486.145Z" stroke="black" stroke-width="2.82"/>
<path d="M314.862 474.529H364.357V500.649L340.96 527.845H314.862V474.529Z" stroke="black" stroke-width="2.82"/>
<path d="M307.608 484.693H360.004V512.802L335.822 540.912H307.608V484.693Z" fill="#2B3B0A"/>
<path d="M325.989 487.998L394.507 440.046V415.244H434.813V435.538C434.813 442.57 431.629 449.225 426.153 453.635L325.989 534.296V487.998Z" fill="#2B3B0A"/>
<path d="M359.253 275.753C359.212 251.911 378.5 232.554 402.328 232.523C422.084 232.497 439.332 245.906 444.19 265.068L491.884 453.179L430.77 483.48C398.011 499.721 359.595 475.914 359.533 439.333L359.253 275.753Z" fill="#255340"/>
<path d="M246.667 205.611C241.858 205.611 237.961 209.511 237.961 214.322V226.49C237.961 229.473 235.702 231.971 232.736 232.268L180.001 237.552C169.418 237.552 159.88 243.943 155.85 253.735L143.68 283.308C142.703 285.684 142.263 288.246 142.391 290.812L155.85 497.436L150.902 609.229C150.902 618.851 158.697 638.266 168.313 638.266H417.62C427.338 638.266 443.882 618.691 443.736 608.969L429.988 481.465V270.942C429.712 252.421 416.08 231.745 397.568 231.745H346.784C343.579 231.745 340.98 229.145 340.98 225.937V214.322C340.98 209.511 337.083 205.611 332.274 205.611H246.667Z" fill="#3A3A3A"/>
<path d="M287.189 516.31L279.65 511.955C278.262 511.153 276.487 511.628 275.686 513.017L245.215 565.825C244.414 567.215 244.89 568.991 246.278 569.793L253.816 574.148C255.205 574.95 256.98 574.474 257.781 573.085L288.251 520.277C289.053 518.888 288.577 517.112 287.189 516.31Z" fill="#1A4E38"/>
<path fill-rule="evenodd" clip-rule="evenodd" d="M340.98 234.649H373.402C383.829 234.649 392.563 242.549 393.612 252.93L409.177 406.936C409.177 413.351 414.373 418.552 420.784 418.552H452.706L435.294 257.878C435.294 245.05 424.9 234.649 412.078 234.649H414.98C414.98 229.838 411.083 225.938 406.274 225.938H340.98V234.649Z" fill="#2B3B0A"/>
<path d="M379.768 516.31L387.307 511.955C388.695 511.153 390.471 511.628 391.272 513.017L421.742 565.825C422.544 567.215 422.068 568.991 420.68 569.793L413.141 574.148C411.753 574.95 409.978 574.474 409.176 573.085L378.706 520.277C377.905 518.888 378.38 517.112 379.768 516.31Z" fill="#1A4E38"/>
<path d="M406.274 397.257H435.294V435.005C419.267 435.005 406.274 422.006 406.274 405.968V397.257Z" fill="#2B3B0A"/>
<path d="M157.675 540.265L201.419 509.652C216.945 498.786 226.193 481.021 226.193 462.062V412.34H266.498V471.12C266.498 488.703 258.538 505.339 244.848 516.362L157.675 586.564V540.265Z" fill="#2B3B0A"/>
<path d="M170.698 531.153L157.675 540.267V586.565L191.111 559.638C191.491 558.855 191.692 557.99 191.692 557.106V536.96C191.692 533.752 189.093 531.153 185.888 531.153H170.698Z" fill="#263408"/>
<path d="M133.49 542.767C133.49 539.56 136.089 536.96 139.294 536.96H180.083C183.288 536.96 185.887 539.559 185.887 542.767V562.914C185.887 564.304 185.388 565.649 184.481 566.702L163.44 591.16C162.338 592.442 160.732 593.178 159.042 593.178H139.294C136.089 593.178 133.49 590.579 133.49 587.371V542.767Z" fill="#2B3B0A"/>
<path d="M194.432 447.372L219.099 273.148L149.451 349.347C148 352.734 142.196 366.479 142.196 405.969C142.196 405.969 146.55 486.572 194.432 447.372Z" fill="#235842"/>
<path d="M255.372 208.515V231.745" stroke="#1A4E38" stroke-width="2.82"/>
<path d="M284.392 208.515V231.745" stroke="#1A4E38" stroke-width="2.82"/>
<path d="M194.432 231.745H249.569C265.596 231.745 278.589 244.746 278.589 260.782V398.225C278.589 407.848 270.793 415.647 261.177 415.647H226.192V267.967C226.192 258.064 221.147 248.842 212.808 243.506L194.432 231.745Z" fill="#2B3B0A"/>
<path d="M266.98 397.257H237.961V435.005C253.988 435.005 266.98 422.006 266.98 405.968V397.257Z" fill="#2B3B0A"/>
<path d="M320.666 207.815L322.117 258.63L335.176 528.677L338.015 541.933C344.668 573.001 341.653 605.361 329.372 634.662" stroke="#1A4E38" stroke-width="5.639"/>
<path d="M142.196 603.422C142.196 600.214 144.795 597.615 148 597.615H441.099C444.304 597.615 446.902 600.214 446.902 603.422V641.17C446.902 644.377 444.304 646.978 441.099 646.978H148C144.795 646.978 142.196 644.377 142.196 641.17V603.422Z" fill="#2A5F49"/>
<path fill-rule="evenodd" clip-rule="evenodd" d="M143.646 597.614C143.646 596.813 144.297 596.163 145.098 596.163H444C444.801 596.163 445.451 596.813 445.451 597.614C445.451 598.416 444.801 599.066 444 599.066H145.098C144.297 599.066 143.646 598.416 143.646 597.614Z" fill="#1A4E38"/>
<path d="M136.392 230.293C136.392 227.887 138.341 225.938 140.745 225.938H246.667C251.474 225.938 255.372 229.838 255.372 234.648H140.745C138.341 234.648 136.392 232.699 136.392 230.293Z" fill="#2B3B0A"/>
<path d="M136.118 255.14C145.505 235.322 167.705 225.048 188.876 230.724C215.931 237.978 230.026 267.779 218.478 293.313L130.723 487.35C125.469 498.968 113.254 505.797 100.612 504.183L62.5388 499.324C42.9632 496.826 31.5349 475.927 39.9878 458.084L136.118 255.14Z" fill="#255340"/>
<path d="M180.802 386.25C187.892 382.73 196.493 385.545 200.133 392.577L224.16 438.982C227.768 445.95 225.188 454.527 218.337 458.345L100.713 523.9C83.4984 533.494 61.7637 526.898 52.7766 509.351L44.5502 493.288C35.6969 476.003 42.677 454.812 60.0655 446.181L180.802 386.25Z" fill="#255340"/>
<path d="M218.505 367.841L268.553 339.887C274.379 336.633 281.916 338.797 285.059 344.628L289.623 353.092L299.201 391.852C301.101 399.544 297.788 407.488 290.929 411.684L269.333 424.894C264.148 428.067 258.096 429.705 251.916 429.611L241.518 435.007L222.667 413.515L205.233 389.308L211.407 384.028L218.505 367.841Z" fill="#F7ABA6"/>
<path d="M217.31 371.469L217.934 366.275C218.296 363.26 219.322 360.363 220.939 357.793C223.508 353.712 227.433 350.667 232.023 349.194L258.088 340.832C263.406 339.126 269.213 339.957 273.839 343.087L274.02 343.21C274.3 343.399 274.494 343.691 274.56 344.021C275.823 350.307 272.268 356.563 266.225 358.69L221.154 374.554C219.125 375.269 217.053 373.604 217.31 371.469Z" fill="#F7ABA6"/>
<path d="M244.869 430.759L215.749 377.492C214.98 376.085 213.216 375.568 211.81 376.338L194.325 385.908C192.919 386.678 192.403 388.443 193.172 389.85L222.291 443.116C223.06 444.523 224.824 445.04 226.23 444.27L243.715 434.7C245.121 433.93 245.638 432.166 244.869 430.759Z" fill="#255340"/>
<path d="M227.447 64.2541C227.996 33.5672 251.253 8.07098 281.744 4.73031L296.38 3.12686C296.625 3.10008 296.872 3.10451 297.115 3.14004L311.684 5.26696C342.035 9.69822 364.366 36.012 363.816 66.6989L363.53 82.6964C363.502 84.2998 362.179 85.5768 360.577 85.548L230.009 83.2072C228.407 83.1783 227.132 81.856 227.16 80.2526L227.447 64.2541Z" fill="#3A3A3A"/>
<path fill-rule="evenodd" clip-rule="evenodd" d="M348.973 85.3411C350.576 85.37 351.898 84.093 351.927 82.4895L352.238 65.1173C352.776 35.0245 331.293 9.04043 301.65 3.93194L297.191 3.16317C297.063 3.14102 296.934 3.12774 296.805 3.1229C296.639 3.11713 296.473 3.12517 296.309 3.14731L291.824 3.75573C262.019 7.79865 239.618 32.9968 239.08 63.0885L238.768 80.4618C238.74 82.0642 240.015 83.3875 241.618 83.4164L348.973 85.3411ZM349.025 82.438L349.337 65.0658C349.784 40.0069 334.199 17.9394 311.405 9.53721C324.364 18.1656 332.496 32.9772 332.205 49.2352L331.616 82.126L349.025 82.438ZM259.668 47.9356C259.959 31.6766 268.616 17.1662 281.875 9.00788C258.795 16.5879 242.43 38.0821 241.981 63.141L241.67 80.5133L259.079 80.8253L259.668 47.9356ZM262.569 47.987L261.981 80.8778L279.39 81.1899L280.325 28.9382C280.464 21.14 283.685 13.8493 289.082 8.5358C273.487 15.2105 262.882 30.5242 262.569 47.987ZM304.22 8.80717C319.567 16.0365 329.616 31.7198 329.303 49.1837L328.714 82.0735L311.305 81.7614L312.241 29.5098C312.381 21.7121 309.422 14.3107 304.22 8.80717ZM308.404 81.7099L309.339 29.4583C309.508 20.0547 304.677 11.2913 296.692 6.40941C288.536 11.0019 283.394 19.5866 283.226 28.9897L282.291 81.2414L308.404 81.7099Z" fill="black"/>
<path d="M288.038 84.2484L227.107 83.1567L226.717 104.93C230.879 102.941 249.394 105.641 256.516 106.663C257.767 106.842 258.761 107.8 258.987 109.044L261.249 121.523L265.6 121.6C267.203 121.629 268.461 120.332 268.822 118.769C270.601 111.054 279.333 115.203 284.721 107.423C290.68 98.8164 288.038 84.2484 288.038 84.2484Z" fill="#241B14"/>
<path d="M363.738 71.0834L227.368 68.6396C225.765 68.6109 224.443 69.8877 224.414 71.4913L224.102 88.9102C224.074 90.5138 225.35 91.8371 226.952 91.8659L363.322 94.3096C364.925 94.3383 366.247 93.0616 366.276 91.4579L366.588 74.039C366.616 72.4354 365.34 71.1121 363.738 71.0834Z" fill="#3A3A3A"/>
<path d="M264.081 115.765C265.212 133.211 257.46 133.072 247.898 132.9C238.336 132.729 232.166 124.816 232.339 115.196C232.51 105.575 238.959 97.8894 248.522 98.0614C258.084 98.2324 264.253 106.145 264.081 115.765Z" fill="#F7ABA6"/>
<path fill-rule="evenodd" clip-rule="evenodd" d="M244.104 108.466C244.737 107.976 245.649 108.091 246.14 108.725L253.678 118.466C254.169 119.1 254.053 120.011 253.419 120.503C252.786 120.994 251.874 120.878 251.383 120.244L243.845 110.503C243.355 109.87 243.47 108.957 244.104 108.466Z" fill="#CE5E56"/>
<path d="M247.574 74.8105L235.968 74.6025C234.365 74.5738 233.043 75.8505 233.014 77.4542L232.91 83.2595C232.882 84.8631 234.157 86.1864 235.76 86.2151L247.366 86.4231C248.968 86.4518 250.291 85.1751 250.32 83.5714L250.423 77.7662C250.452 76.1625 249.176 74.8392 247.574 74.8105Z" fill="#FBBC91"/>
<path d="M301.075 5.31543C301.135 5.04015 301.07 4.90803 301.075 4.61566C301.118 2.21059 299.205 0.225891 296.801 0.182844C294.398 0.139694 292.413 2.05457 292.371 4.45964C292.366 4.75201 292.39 5.0382 292.439 5.31543H301.075Z" fill="black"/>
<path d="M328.252 125.61L332.267 141.655L325.013 144.429" stroke="#CE5E56" stroke-width="2.82" stroke-linecap="round" stroke-linejoin="round"/>
<path d="M334.599 157.134L313.906 155.421C313.025 155.348 312.281 156.074 312.399 156.951C313.081 162.003 315.66 168.822 323.212 168.249C330.6 167.686 334.502 162.624 335.783 158.79C336.052 157.985 335.445 157.204 334.599 157.134Z" fill="white"/>
<path fill-rule="evenodd" clip-rule="evenodd" d="M335.806 158.714L312.434 157.208C312.422 157.122 312.411 157.038 312.398 156.953C312.28 156.076 313.024 155.349 313.906 155.422L334.599 157.135C335.418 157.203 336.013 157.937 335.806 158.714Z" fill="#D4726B"/>
<path d="M473.511 515.806L490.446 506.534C503.904 499.166 510.221 483.261 505.488 468.659L461.412 332.675L445.451 345.741L407.607 404.646C406.755 405.971 406.479 407.586 406.84 409.119L427.12 495.121C431.962 515.653 455.015 525.932 473.511 515.806Z" fill="#255340"/>
<path d="M385.221 355.176C384.775 352.866 385.766 350.515 387.731 349.222L407.174 336.436C415.609 330.887 426.32 330.125 435.457 334.421L446.262 339.503C451.252 341.849 454.481 346.822 454.597 352.337L455.671 403.458C455.845 411.741 449.068 418.491 440.791 418.278L415.282 417.62C411.2 417.515 407.74 414.585 406.961 410.573L401.714 383.565L397.487 384.861C394.188 385.872 390.742 383.798 390.088 380.409L385.221 355.176Z" fill="#F7ABA6"/>
<path d="M458.51 888.738L477.372 866.96" stroke="black" stroke-width="4.229" stroke-linecap="round"/>
<path d="M458.51 888.738L477.372 890.19" stroke="black" stroke-width="4.229" stroke-linecap="round"/>
<path d="M156.706 1211.05H265.529" stroke="#8E4B0C" stroke-width="4.229" stroke-linecap="round"/>
<path d="M581.842 1150.08H468.666" stroke="#8E4B0C" stroke-width="4.229" stroke-linecap="round"/>
<path d="M581.842 1109.42H468.666" stroke="black" stroke-width="4.229" stroke-linecap="round"/>
</svg>
