<svg width="760" height="1537" viewBox="0 0 760 1537" fill="none" xmlns="http://www.w3.org/2000/svg">
<path d="M560.32 1511.56H467.084L473.991 1611.69H567.226L560.32 1511.56Z" fill="#F7ABA6"/>
<path d="M182.806 1511.96H276.041L262.228 1612.09H168.993L182.806 1511.96Z" fill="#F7ABA6"/>
<path d="M525.788 814.942H311.692L311.816 815.806L182.2 821.015L177.02 1192.18L168.388 1532.27H296.153L368.669 957.397L391.978 1133.46L441.186 1532.27H568.951L525.788 814.942Z" fill="#3A3A3A"/>
<path d="M373.849 903.88L296.153 1533.99H168.388" stroke="#3A3A3A" stroke-width="3.995" stroke-linecap="round"/>
<path d="M63.0654 317.752H429.099V835.659H87.2381C73.8878 835.659 63.0654 824.838 63.0654 811.491V317.752Z" fill="#495927"/>
<path d="M306.513 861.554C228.817 925.43 180.473 889.176 180.473 889.176V814.942H524.061C501.615 846.017 349.676 826.068 306.513 861.554Z" fill="#CB712F"/>
<path fill-rule="evenodd" clip-rule="evenodd" d="M259.264 873.024C250.318 882.223 237.945 889.835 221.911 890.799C220.006 890.913 218.458 889.357 218.458 887.45C218.458 885.542 220.008 884.01 221.911 883.879C235.663 882.933 246.357 876.392 254.312 868.21C261.723 860.588 266.652 851.637 269.276 844.807C269.959 843.026 271.886 842.004 273.709 842.564C275.531 843.125 276.561 845.059 275.889 846.844C273.006 854.516 267.553 864.5 259.264 873.024Z" fill="#8E4B0C"/>
<path d="M356.584 172.738C319.395 172.738 289.249 202.882 289.249 240.066V316.026" stroke="#495A27" stroke-width="15.982"/>
<path d="M90.6917 183.096V317.752H429.099V317.73C465.491 316.815 494.709 287.031 494.709 250.424C494.709 213.817 465.491 184.033 429.099 183.118V183.096H90.6917Z" fill="#DB552B"/>
<path d="M486.426 444.49C463.45 463.232 429.741 460.343 410.29 437.964C390.264 414.925 392.886 379.973 416.125 360.178L588.274 213.537L617.638 225.588C658.808 242.482 666.936 297.243 632.457 325.369L486.426 444.49Z" fill="#255340"/>
<path d="M443.513 230.866C435.728 225.564 433.63 215.002 438.798 207.128L472.893 155.172C478.013 147.37 488.406 145.049 496.361 149.929L632.904 233.725C652.883 245.988 658.73 272.373 645.774 291.918L640.099 300.484L598.401 336.378L443.513 230.866Z" fill="#255340"/>
<path d="M396.567 197.214L344.768 157.894C337.581 152.438 337.149 141.521 343.891 135.725L351.529 129.16L384.132 99.9879C391.137 93.7218 401.357 93.0245 409.288 98.2729L434.346 114.857C440.358 118.836 445.097 124.591 447.936 131.361L458.775 140.122L444.347 170.913L426.285 201.452L417.588 197.238L396.567 197.214Z" fill="#F7ABA6"/>
<path d="M452.289 138.486L414.05 199.725C413.04 201.342 413.533 203.473 415.151 204.483L435.267 217.04C436.885 218.05 439.016 217.558 440.026 215.94L478.264 154.701C479.274 153.083 478.782 150.953 477.164 149.943L457.047 137.385C455.429 136.375 453.299 136.868 452.289 138.486Z" fill="#255340"/>
<path d="M418.094 179.263L401.625 196.853C397.545 201.21 391.496 203.139 385.647 201.949C382.419 201.292 379.449 199.722 377.088 197.425L347.735 168.869C343.443 164.694 343.281 157.856 347.368 153.482C351.387 149.18 358.081 148.807 362.554 152.635L373.654 162.135C383.855 155.385 397.312 156.298 406.508 164.362L417.851 174.308C419.318 175.594 419.428 177.84 418.094 179.263Z" fill="#F7ABA6"/>
<path d="M365.999 157.262L357.416 150.109L406.923 96.6523L414.852 102.401C423.302 108.529 424.423 120.694 417.237 128.264L412.452 133.302C403.606 142.62 393.247 150.374 381.814 156.237L377.36 158.521C373.664 160.417 369.191 159.921 365.999 157.262Z" fill="#F7ABA6"/>
<path d="M490.877 272.866H104.504V317.752H429.099V317.73C457.667 317.011 481.815 298.502 490.877 272.866Z" fill="#C04923"/>
<path d="M173.567 183.096H120.744C134.605 170.24 153.168 162.38 173.567 162.38C216.476 162.38 251.263 197.162 251.263 240.066V317.753H230.544V240.066C230.544 208.603 205.034 183.096 173.567 183.096Z" fill="#7A431C"/>
<path d="M95.8708 317.752C133.06 317.752 163.207 287.608 163.207 250.424C163.207 213.24 133.06 183.096 95.8708 183.096C58.6819 183.096 28.5344 213.24 28.5344 250.424C28.5344 287.608 58.6819 317.752 95.8708 317.752Z" fill="#D04219"/>
<path d="M354.855 172.738C392.045 172.738 422.192 202.882 422.192 240.066V319.479" stroke="#495A27" stroke-width="15.982"/>
<path d="M95.8707 297.036C121.617 297.036 142.488 276.167 142.488 250.424C142.488 224.682 121.617 203.813 95.8707 203.813C70.1247 203.813 49.2534 224.682 49.2534 250.424C49.2534 276.167 70.1247 297.036 95.8707 297.036Z" stroke="#DC5531" stroke-width="5.327"/>
<path d="M95.8707 269.414C106.36 269.414 114.863 260.912 114.863 250.424C114.863 239.937 106.36 231.435 95.8707 231.435C85.3816 231.435 76.8784 239.937 76.8784 250.424C76.8784 260.912 85.3816 269.414 95.8707 269.414Z" stroke="#DC5531" stroke-width="5.327"/>
<path d="M427.371 319.479H164.933V692.373H427.371V319.479Z" stroke="black" stroke-width="2.664"/>
<path d="M73.4236 431.692H56.1594C54.252 431.692 52.7058 433.238 52.7058 435.145V562.895C52.7058 564.802 54.252 566.348 56.1594 566.348H73.4236C75.331 566.348 76.8773 564.802 76.8773 562.895V435.145C76.8773 433.238 75.331 431.692 73.4236 431.692Z" fill="#7A431C"/>
<path d="M18.1748 352.279C18.1748 333.21 33.6357 317.752 52.7071 317.752H429.099V480.03H31.988C24.36 480.03 18.1748 473.846 18.1748 466.219V352.279Z" fill="#2B3B0A"/>
<path d="M259.896 562.895H35.4404C16.3694 562.895 0.909424 578.353 0.909424 597.422V770.059C0.909424 789.127 16.3694 804.586 35.4404 804.586H259.896C278.966 804.586 294.427 789.127 294.427 770.059V597.422C294.427 578.353 278.966 562.895 259.896 562.895Z" fill="#2B3C0A"/>
<path d="M63.0654 317.752H149.394C157.023 317.752 163.207 323.936 163.207 331.563V835.659H90.6905C75.4344 835.659 63.0654 823.293 63.0654 808.037V317.752Z" fill="#3A4A16"/>
<path d="M79.6594 833.368C69.8923 829.11 63.0654 819.372 63.0654 808.037V752.303L102.308 713.067L126.725 737.48L149.394 751.067V763.151L79.6594 833.368Z" fill="#304207"/>
<path d="M104.504 317.752H114.863V416.154C114.863 419.015 112.544 421.334 109.684 421.334C106.823 421.334 104.504 419.015 104.504 416.154V317.752Z" fill="#2B3B0A"/>
<path d="M35.4404 562.895H42.3464V631.95C42.3464 633.856 40.7998 635.402 38.8928 635.402C36.9858 635.402 35.4404 633.856 35.4404 631.95V562.895Z" fill="#202E05"/>
<path d="M121.769 625.043H101.05V638.854H121.769V625.043Z" fill="#B1320A"/>
<path d="M145.942 652.665C145.942 641.224 136.666 631.948 125.223 631.948H97.5975C86.1555 631.948 76.8784 641.224 76.8784 652.665V732.078H145.942V652.665Z" fill="#D34316"/>
<path d="M145.942 732.078H87.238V652.665C87.238 641.224 97.7518 631.948 110.72 631.948H122.46C137.309 631.948 145.942 641.224 145.942 652.665V732.078Z" fill="#DB552B"/>
<path d="M121.769 607.78H101.051C99.1439 607.78 97.5977 609.326 97.5977 611.233V625.043C97.5977 626.95 99.1439 628.496 101.051 628.496H121.769C123.676 628.496 125.223 626.95 125.223 625.043V611.233C125.223 609.326 123.676 607.78 121.769 607.78Z" fill="#D04219"/>
<path d="M73.4263 669.929H149.395V756.247C149.395 765.781 141.665 773.511 132.129 773.511H111.411H90.6917C81.1554 773.511 73.4263 765.781 73.4263 756.247V669.929Z" fill="#2B3B0A"/>
<path d="M295.81 234.483C259.532 235.724 260.576 206.193 257.191 164.898L304.387 148.905C308.43 163.008 312.375 199.868 295.81 234.483Z" fill="#241B14"/>
<path d="M311.271 111.703C289.172 112.722 272.616 132.333 275.32 154.286L280.156 193.537C280.489 196.239 281.28 198.862 282.493 201.299C283.713 203.747 284.475 203.235 284.806 205.94L295.229 290.827L296.512 348.748L390.638 339.302L385.278 273.92L390.926 273.457C409.933 271.9 424.078 255.231 422.521 236.225L415.188 146.769C415.237 125.073 397.13 107.744 375.454 108.744L311.271 111.703Z" fill="#F7ABA6"/>
<path d="M339.195 277.696L389.099 273.606L390.792 294.253L339.195 277.696Z" fill="#CE5E56"/>
<path d="M357.054 178.851C359.904 178.617 362.026 176.117 361.792 173.266C361.559 170.416 359.058 168.295 356.207 168.528C353.357 168.762 351.235 171.262 351.469 174.112C351.702 176.963 354.203 179.084 357.054 178.851Z" fill="#241B14"/>
<path fill-rule="evenodd" clip-rule="evenodd" d="M362.913 159.657C355.14 156.094 346.022 158.554 341.061 165.325C340.498 166.095 339.444 166.369 338.625 165.882C337.805 165.395 337.531 164.329 338.083 163.551C343.957 155.27 354.974 152.22 364.352 156.518L365.681 157.129C366.548 157.525 366.929 158.55 366.531 159.416C366.134 160.284 365.109 160.665 364.242 160.267L362.913 159.657Z" fill="#241B14"/>
<path d="M398.409 175.843C401.26 175.61 403.381 173.11 403.148 170.259C402.914 167.409 400.413 165.287 397.563 165.521C394.712 165.754 392.59 168.255 392.824 171.105C393.058 173.955 395.558 176.077 398.409 175.843Z" fill="#241B14"/>
<path fill-rule="evenodd" clip-rule="evenodd" d="M385.871 158.157C392.96 153.376 402.356 154.32 408.354 160.192C409.035 160.859 410.119 160.959 410.849 160.345C411.577 159.73 411.675 158.635 411.004 157.957C403.86 150.742 392.493 149.528 383.941 155.295L382.727 156.112C381.936 156.647 381.729 157.719 382.262 158.509C382.795 159.3 383.868 159.509 384.659 158.976L385.871 158.157Z" fill="#241B14"/>
<path d="M365.215 623.7H424.111V654.758L396.269 687.097H365.215V623.7Z" stroke="black" stroke-width="2.664"/>
<path d="M375.576 609.89H434.47V640.947L406.629 673.285H375.576V609.89Z" stroke="black" stroke-width="2.664"/>
<path d="M366.943 621.975H429.291V655.399L400.515 688.824H366.943V621.975Z" fill="#2B3B0A"/>
<path d="M388.812 625.906L470.344 568.889V539.396H518.305V563.527C518.305 571.891 514.515 579.803 508 585.046L388.812 680.958V625.906Z" fill="#2B3B0A"/>
<path d="M294.427 290.131C288.706 290.131 284.067 294.768 284.067 300.489V314.956C284.067 318.504 281.378 321.474 277.848 321.828L215.098 328.111C202.504 328.111 191.155 335.709 186.36 347.353L171.88 382.517C170.716 385.342 170.192 388.389 170.345 391.44L186.36 637.128L180.473 770.058C180.473 781.499 189.749 804.584 201.192 804.584H497.85C509.414 804.584 529.099 781.309 528.926 769.749L512.567 618.138L506.794 368.709C506.466 346.687 496.017 321.204 473.99 321.204H413.559C409.745 321.204 406.653 318.113 406.653 314.299V300.489C406.653 294.768 402.015 290.131 396.294 290.131H294.427Z" fill="#3A3A3A"/>
<path d="M342.646 659.57L333.675 654.391C332.023 653.438 329.911 654.003 328.958 655.655L292.7 718.448C291.746 720.099 292.312 722.211 293.964 723.165L302.934 728.343C304.586 729.297 306.698 728.731 307.652 727.079L343.91 664.287C344.864 662.635 344.298 660.523 342.646 659.57Z" fill="#1A4E38"/>
<path fill-rule="evenodd" clip-rule="evenodd" d="M406.653 324.658H433.742C446.618 324.658 457.234 334.749 457.883 347.606L467.083 529.518C467.083 537.146 473.266 543.33 480.894 543.33H504.298C512.221 543.33 518.519 536.681 518.089 528.771L508.519 352.279C508.519 337.024 496.152 324.658 480.894 324.658H484.348C484.348 318.937 479.709 314.299 473.988 314.299H406.653V324.658Z" fill="#2B3B0A"/>
<path d="M452.81 659.57L461.78 654.391C463.432 653.438 465.544 654.003 466.498 655.655L502.756 718.448C503.71 720.099 503.144 722.211 501.492 723.165L492.521 728.343C490.869 729.297 488.757 728.731 487.803 727.079L451.546 664.287C450.592 662.635 451.158 660.523 452.81 659.57Z" fill="#1A4E38"/>
<path d="M484.349 524.915H518.882V569.8C499.81 569.8 484.349 554.342 484.349 535.273V524.915Z" fill="#2B3B0A"/>
<path d="M188.53 688.055L240.582 651.654C259.057 638.734 270.062 617.609 270.062 595.066V535.943H318.022V605.837C318.022 626.744 308.549 646.524 292.26 659.633L188.53 743.107V688.055Z" fill="#2B3B0A"/>
<path d="M204.027 677.218L188.53 688.056V743.107L228.316 711.09C228.769 710.158 229.007 709.13 229.007 708.079V684.123C229.007 680.31 225.915 677.218 222.101 677.218H204.027Z" fill="#263408"/>
<path d="M159.754 691.028C159.754 687.215 162.846 684.123 166.661 684.123H215.197C219.011 684.123 222.103 687.215 222.103 691.028V714.985C222.103 716.638 221.509 718.236 220.43 719.49L195.393 748.571C194.081 750.095 192.17 750.971 190.158 750.971H166.661C162.846 750.971 159.754 747.88 159.754 744.066V691.028Z" fill="#2B3B0A"/>
<path d="M232.272 577.598L261.622 370.436L178.747 461.04C177.02 465.068 170.115 481.411 170.115 528.367C170.115 528.367 175.295 624.21 232.272 577.598Z" fill="#235842"/>
<path d="M304.785 293.583V321.204" stroke="#1A4E38" stroke-width="2.664"/>
<path d="M339.317 293.583V321.204" stroke="#1A4E38" stroke-width="2.664"/>
<path d="M232.271 321.204H297.88C316.951 321.204 332.411 336.663 332.411 355.732V519.161C332.411 530.601 323.135 539.876 311.693 539.876H270.063V364.276C270.063 352.499 264.06 341.534 254.138 335.189L232.271 321.204Z" fill="#2B3B0A"/>
<path d="M318.599 518.01H284.067V562.895C303.138 562.895 318.599 547.436 318.599 528.367V518.01Z" fill="#2B3B0A"/>
<path d="M377.303 292.749V342.814L399.749 674.274L403.126 690.037C411.043 726.978 407.454 765.457 392.841 800.297" stroke="#1A4E38" stroke-width="5.327"/>
<path d="M170.115 763.153C170.115 759.339 173.206 756.248 177.02 756.248H525.788C529.602 756.248 532.694 759.339 532.694 763.153V808.038C532.694 811.851 529.602 814.943 525.788 814.943H177.02C173.206 814.943 170.115 811.851 170.115 808.038V763.153Z" fill="#2A5F49"/>
<path fill-rule="evenodd" clip-rule="evenodd" d="M171.841 756.247C171.841 755.293 172.614 754.521 173.567 754.521H529.241C530.195 754.521 530.968 755.293 530.968 756.247C530.968 757.2 530.195 757.972 529.241 757.972H173.567C172.614 757.972 171.841 757.2 171.841 756.247Z" fill="#1A4E38"/>
<path d="M163.206 319.478C163.206 316.618 165.525 314.299 168.386 314.299H294.427C300.148 314.299 304.786 318.937 304.786 324.658H168.386C165.525 324.658 163.206 322.339 163.206 319.478Z" fill="#2B3B0A"/>
<path d="M171.017 368.907C173.275 342.956 193.718 322.306 219.647 319.781C252.861 316.547 281.049 343.872 278.845 377.166L263.415 610.276C261.915 632.948 239.3 648.015 217.796 640.669L174.977 626.043C159.952 620.911 150.362 606.193 151.739 590.376L171.017 368.907Z" fill="#255340"/>
<path d="M387.81 488.699L390.433 483.058C391.955 479.784 394.185 476.889 396.961 474.582C401.373 470.915 406.937 468.923 412.674 468.952L445.242 469.12C451.887 469.155 458.15 472.237 462.229 477.483L462.388 477.689C462.635 478.005 462.747 478.407 462.701 478.806C461.81 486.377 455.48 492.136 447.858 492.311L391.02 493.607C388.462 493.665 386.732 491.02 387.81 488.699Z" fill="#F7ABA6"/>
<path d="M333.588 505.545C342.499 502.497 352.21 507.151 355.413 516.006L376.559 574.443C379.734 583.217 375.361 592.926 366.685 596.365L217.747 655.391C195.949 664.03 171.332 652.88 163.451 630.799L156.237 610.585C148.474 588.834 159.996 564.935 181.85 557.459L333.588 505.545Z" fill="#255340"/>
<path d="M445.407 396.905C445.906 394.809 448.182 393.677 450.156 394.544L523.536 426.795C524.421 427.183 525.428 427.183 526.314 426.795L602.094 393.489C602.979 393.099 603.988 393.099 604.873 393.489L680.652 426.795C681.533 427.183 682.545 427.183 683.426 426.795L754.249 395.672C756.854 394.525 759.655 396.858 758.993 399.632L691.931 681.236C691.684 682.288 690.958 683.161 689.973 683.597L614.369 716.822C613.484 717.211 612.475 717.211 611.59 716.822L535.81 683.516C534.925 683.127 533.917 683.127 533.032 683.516L457.251 716.822C456.365 717.211 455.358 717.211 454.472 716.822L379.94 684.065C378.413 683.393 377.583 681.726 377.971 680.105L445.407 396.905Z" fill="#D39974"/>
<path d="M691.931 681.236L758.993 399.632C759.655 396.858 756.854 394.525 754.249 395.672L683.621 426.714C682.622 427.15 681.896 428.024 681.65 429.075L614.588 710.678C613.927 713.453 616.725 715.786 619.337 714.639L689.973 683.597C690.958 683.161 691.684 682.288 691.931 681.236Z" fill="#E6C9A7"/>
<path d="M524.527 429.075C524.778 428.024 525.506 427.15 526.497 426.714L597.126 395.672C599.738 394.525 602.536 396.858 601.875 399.632L534.818 681.236C534.568 682.288 533.838 683.161 532.849 683.597L462.218 714.639C459.608 715.786 456.81 713.453 457.47 710.678L524.527 429.075Z" fill="#E6C9A7"/>
<path d="M390.504 485.041L466.233 470.573C475.297 468.841 483.817 476.162 483.284 485.223L482.623 496.46L474.262 543.652C472.748 552.197 466.306 558.957 457.716 561.014L416.784 570.82C412.699 571.799 408.323 570.392 405.51 567.197L391.758 569.46L378.362 538.207L367.571 504.407L376.503 500.718L390.504 485.041Z" fill="#F7ABA6"/>
<path d="M402.27 567.963L376.18 500.647C375.49 498.868 373.49 497.985 371.711 498.675L349.599 507.243C347.82 507.932 346.937 509.932 347.626 511.711L373.717 579.027C374.406 580.805 376.407 581.688 378.185 580.999L400.298 572.43C402.076 571.741 402.959 569.741 402.27 567.963Z" fill="#255340"/>
<path d="M254.083 127.009C251.101 90.6367 275.621 57.716 311.328 50.1525L328.467 46.523C328.754 46.4621 329.047 46.4387 329.339 46.4517L346.84 47.2424C383.303 48.8912 412.857 77.38 415.839 113.753L417.392 132.715C417.548 134.616 416.134 136.282 414.232 136.438L259.36 149.131C257.46 149.286 255.792 147.872 255.637 145.971L254.083 127.009Z" fill="#3A3A3A"/>
<path fill-rule="evenodd" clip-rule="evenodd" d="M400.465 137.567C402.366 137.412 403.78 135.745 403.625 133.844L401.937 113.254C399.014 77.585 370.501 49.3853 334.799 46.8511L329.428 46.47C329.274 46.4584 329.119 46.4584 328.966 46.4674C328.769 46.4804 328.574 46.5102 328.38 46.5556L323.144 47.8065C288.332 56.1193 264.791 88.5849 267.715 124.252L269.403 144.844C269.559 146.745 271.226 148.159 273.126 148.003L400.465 137.567ZM400.183 134.126L398.495 113.535C396.062 83.8342 374.995 59.5698 347.012 52.3277C363.378 61.0022 374.759 77.563 376.338 96.8342L379.534 135.819L400.183 134.126ZM290.299 103.886C288.718 84.6145 297.251 66.4218 311.985 55.1989C285.555 66.9001 268.721 94.2689 271.156 123.971L272.844 144.562L293.494 142.869L290.299 103.886ZM293.739 103.603L296.935 142.588L317.585 140.895L312.509 78.9629C311.75 69.7194 314.702 60.7118 320.462 53.786C302.787 63.5299 292.044 82.9035 293.739 103.603ZM338.42 52.3148C357.444 59.0514 371.201 76.4171 372.896 97.1168L376.092 136.101L355.443 137.793L350.366 75.8597C349.609 66.6175 345.23 58.2101 338.42 52.3148ZM352.001 138.075L346.924 76.1423C346.011 64.9959 339.253 55.2002 329.22 50.3691C320.108 56.7687 315.037 67.5353 315.951 78.6803L321.027 140.613L352.001 138.075Z" fill="black"/>
<path d="M328.193 143.491L255.919 149.413L258.035 175.223C262.728 172.375 284.969 173.378 293.523 173.742C295.025 173.807 296.315 174.822 296.729 176.267L300.885 190.765L306.046 190.342C307.948 190.185 309.285 188.501 309.526 186.61C310.72 177.271 321.55 181.147 327.008 171.303C333.045 160.414 328.193 143.491 328.193 143.491Z" fill="#241B14"/>
<path d="M416.263 118.952L254.509 132.206C252.608 132.362 251.193 134.029 251.349 135.93L253.041 156.576C253.197 158.477 254.864 159.891 256.765 159.736L418.52 146.481C420.421 146.325 421.835 144.658 421.68 142.758L419.987 122.111C419.832 120.211 418.164 118.796 416.263 118.952Z" fill="#3A3A3A"/>
<path d="M303.556 183.616C306.96 204.124 297.765 204.877 286.422 205.806C275.08 206.736 266.839 198.105 265.904 186.702C264.97 175.299 271.695 165.441 283.038 164.512C294.38 163.583 302.621 172.213 303.556 183.616Z" fill="#F7ABA6"/>
<path fill-rule="evenodd" clip-rule="evenodd" d="M279.04 177.347C279.732 176.691 280.823 176.72 281.479 177.412L291.558 188.044C292.214 188.736 292.185 189.829 291.493 190.485C290.8 191.141 289.708 191.111 289.052 190.42L278.973 179.787C278.317 179.096 278.347 178.003 279.04 177.347Z" fill="#CE5E56"/>
<path d="M279.163 137.116L265.398 138.244C263.497 138.4 262.082 140.067 262.238 141.968L262.802 148.85C262.957 150.751 264.625 152.165 266.526 152.01L280.292 150.882C282.193 150.726 283.607 149.059 283.452 147.158L282.888 140.276C282.732 138.375 281.064 136.961 279.163 137.116Z" fill="#FBBC91"/>
<path d="M334.284 48.5579C334.323 48.2248 334.23 48.077 334.201 47.7296C333.968 44.8792 331.467 42.7572 328.616 42.9918C325.766 43.2252 323.643 45.7256 323.877 48.5761C323.905 48.9221 323.967 49.2579 324.06 49.5806L334.284 48.5579Z" fill="black"/>
<path d="M380.702 184.213L387.697 206.159L379.093 210.316" stroke="#CE5E56" stroke-width="2.664" stroke-linecap="round" stroke-linejoin="round"/>
<path d="M366.943 228.97C366.943 227.98 367.774 227.194 368.762 227.249L396.392 228.784C397.306 228.834 398.021 229.59 398.021 230.505C398.021 231.494 397.19 232.281 396.202 232.226L368.572 230.69C367.658 230.64 366.943 229.885 366.943 228.97Z" fill="#CE5E56"/>
<path d="M170.115 1483.93H304.786" stroke="#3A3A3A" stroke-width="3.995" stroke-linecap="round"/>
<path d="M436.007 1483.93H565.499" stroke="#3A3A3A" stroke-width="3.995" stroke-linecap="round"/>
<path d="M511.974 277.213L544.778 270.306" stroke="black" stroke-width="3.995" stroke-linecap="round"/>
<path d="M540.98 1.50049C494.762 23.7297 536.64 85.1132 565.857 69.1358C595.072 53.157 560.262 23.6908 505.07 59.6913C449.878 95.6905 542.803 74.8962 545.292 53.0403C547.782 31.1844 479.98 -2.69804 492.983 32.6569C505.988 68.0119 499.394 93.5738 525.67 83.9116C551.945 74.2507 583.769 11.9417 558.734 21.1476C533.7 30.3535 485.109 49.9656 475.234 32.6556" stroke="black" stroke-width="2.664" stroke-linecap="round"/>
</svg>
